<svg xmlns="http://www.w3.org/2000/svg" viewBox="0 0 17.64 17.64"><defs><style>.cls-1{fill:#231f20;}.cls-2,.cls-3{fill:none;stroke-linecap:round;stroke-linejoin:round;}.cls-2{stroke:#231f20;}.cls-3{stroke:#fff;stroke-width:0.8px;}</style></defs><g id="Layer_2" data-name="Layer 2"><g id="Layer_1-2" data-name="Layer 1"><rect class="cls-1" x="4.74" y="7.13" width="8.15" height="8.15" rx="4.08"/><path class="cls-2" d="M16.77,7.83a2,2,0,0,0-.2-.21L10.22,1.26A2.35,2.35,0,0,0,9.05.5H8.59a2.35,2.35,0,0,0-1.17.76Q4.35,4.35,1.25,7.43A2.34,2.34,0,0,0,.5,8.59v.46a4.43,4.43,0,0,0,.17.47A1.49,1.49,0,0,0,2,10.35h.24l0,0v4.88a1.8,1.8,0,0,0,1.9,1.89h9.31a1.79,1.79,0,0,0,1.86-1.86c0-1.57,0-3.14,0-4.71v-.2c.18,0,.36,0,.53,0A1.52,1.52,0,0,0,16.77,7.83Z"/><path class="cls-3" d="M11.07,10.79A3.3,3.3,0,0,0,8.82,10a3.16,3.16,0,0,0-2.26.82"/><path class="cls-3" d="M10.18,11.85a1.94,1.94,0,0,0-1.36-.52,1.82,1.82,0,0,0-1.36.52"/><circle class="cls-3" cx="8.82" cy="12.94" r="0.14"/></g></g></svg>