<?xml version="1.0" encoding="utf-8"?>
<!-- Generator: Adobe Illustrator 22.0.1, SVG Export Plug-In . SVG Version: 6.00 Build 0)  -->
<svg version="1.1" id="Layer_1" xmlns="http://www.w3.org/2000/svg" xmlns:xlink="http://www.w3.org/1999/xlink" x="0px" y="0px"
	 viewBox="0 0 19.6 19.6" style="enable-background:new 0 0 19.6 19.6;" xml:space="preserve">
<style type="text/css">
	.st0{fill:none;stroke:#231F20;stroke-width:1.07;stroke-linecap:round;stroke-linejoin:round;}
	.st1{fill:#231F20;}
</style>
<g id="Layer_2_1_">
	<g id="Layer_1-2">
		<path class="st0" d="M6.5,1.4h6.6c0.8,0,1.5,0.7,1.5,1.5v13.9c0,0.8-0.7,1.5-1.5,1.5H6.5c-0.8,0-1.5-0.7-1.5-1.5V2.9
			C5,2.1,5.7,1.4,6.5,1.4z"/>
		<path class="st1" d="M9.8,2.7H8.1c-0.2,0-0.4-0.2-0.4-0.4v-1h4.6v1c0,0.2-0.2,0.4-0.4,0.5L9.8,2.7"/>
		<path class="st0" d="M1.5,8.5c-0.5,1.6,0,3.4,1.3,4.4"/>
		<polygon class="st1" points="0,8.1 2.8,6.6 2.7,9.8 		"/>
		<path class="st0" d="M18.1,10.9c0.5-1.6,0-3.3-1.3-4.4"/>
		<polygon class="st1" points="19.6,11.4 16.7,12.8 16.9,9.6 		"/>
	</g>
</g>
</svg>
