<?xml version="1.0" encoding="utf-8"?>
<!-- Generator: Adobe Illustrator 22.0.1, SVG Export Plug-In . SVG Version: 6.00 Build 0)  -->
<svg version="1.1" id="Layer_1" xmlns="http://www.w3.org/2000/svg" xmlns:xlink="http://www.w3.org/1999/xlink" x="0px" y="0px"
	 viewBox="0 0 19.1 19.1" style="enable-background:new 0 0 19.1 19.1;" xml:space="preserve">
<style type="text/css">
	.st0{fill:none;stroke:#231F20;stroke-linecap:round;stroke-linejoin:round;}
	.st1{fill:#231F20;}
	.st2{fill:#F5F8FD;}
</style>
<g id="Layer_2_1_">
	<g id="Layer_1-2">
		<path class="st0" d="M6.6,15.1H3.9c-0.7,0-1.3-0.6-1.3-1.3v-12c0-0.7,0.6-1.3,1.3-1.3c0,0,0,0,0,0h5.8c0.7,0,1.3,0.6,1.3,1.3v5.4"
			/>
		<path class="st1" d="M12.2,8.1L12.2,8.1c2.7,0,4.8,2.2,4.8,4.8l0,0c0,2.7-2.2,4.8-4.8,4.8l0,0c-2.7,0-4.8-2.2-4.8-4.8l0,0
			C7.4,10.2,9.6,8.1,12.2,8.1z"/>
		<path class="st0" d="M12.4,4.7c1.3-0.1,2.5,0.6,3.2,1.7"/>
		<polygon class="st1" points="14.2,6.4 16,8.1 16.5,5.6 		"/>
		<path class="st0" d="M8.5,18.4c-0.3,0.1-0.6,0.2-0.9,0.2c-1,0.1-1.9-0.2-2.7-0.8"/>
		<polygon class="st1" points="6.2,17.3 3.9,16.3 4.2,18.8 		"/>
		<path class="st1" d="M4.4,0.5h4.7l0,0v1C9.1,1.7,8.9,2,8.7,2c0,0-0.1,0-0.1,0H4.9C4.6,2,4.4,1.8,4.4,1.6v0V0.5L4.4,0.5z"/>
		<path class="st2" d="M13,14.1c0-0.2-0.1-0.3-0.2-0.5c-0.2-0.1-0.4-0.3-0.6-0.3c-0.2-0.1-0.4-0.2-0.6-0.3c-0.5-0.2-0.8-0.7-0.8-1.2
			c0-0.3,0.1-0.7,0.3-0.9c0.2-0.2,0.6-0.4,0.9-0.4V9.7h0.5v0.7c0.3,0,0.7,0.2,0.9,0.5c0.2,0.3,0.3,0.7,0.3,1.1H13
			c0-0.2-0.1-0.5-0.2-0.7c-0.1-0.2-0.3-0.2-0.5-0.2c-0.2,0-0.4,0.1-0.5,0.2c-0.1,0.1-0.2,0.3-0.2,0.5c0,0.2,0.1,0.3,0.2,0.5
			c0.2,0.1,0.4,0.3,0.6,0.3c0.2,0.1,0.4,0.2,0.7,0.3c0.1,0.1,0.3,0.2,0.4,0.3c0.1,0.1,0.2,0.3,0.3,0.4c0.1,0.2,0.1,0.3,0.1,0.5
			c0,0.3-0.1,0.7-0.3,0.9c-0.3,0.3-0.6,0.4-1,0.4V16H12v-0.6c-0.8,0-1.4-0.7-1.4-1.5c0,0,0,0,0,0h0.8c0,0.2,0.1,0.5,0.2,0.6
			c0.2,0.2,0.4,0.2,0.6,0.2c0.2,0,0.4-0.1,0.6-0.2C12.9,14.4,13,14.2,13,14.1z"/>
	</g>
</g>
</svg>
